<svg xmlns="http://www.w3.org/2000/svg" width="43" height="72"><defs><linearGradient id="a" x1="50%" x2="50%" y1="0%" y2="100%"><stop stop-color="#C6C8CA" offset="0%"/><stop stop-color="#C6C8CA" offset="100%"/></linearGradient><linearGradient id="b" x1="50%" x2="50%" y1="0%" y2="100%"><stop stop-color="#65676C" offset="0%"/><stop stop-color="#30373F" offset="100%"/></linearGradient><linearGradient id="c" x1="50%" x2="50%" y1="0%" y2="100%"><stop stop-color="#ECF8FF" offset="0%"/><stop stop-color="#A2DEFC" offset="100%"/></linearGradient><linearGradient id="d" x1="50%" x2="50%" y1="0%" y2="100%"><stop stop-color="#F5DB90" offset="0%"/><stop stop-color="#D9A441" offset="100%"/></linearGradient><linearGradient id="e" x1="0%" y1="61.278%" y2="50%"><stop stop-color="#774F39" offset="0%"/><stop stop-color="#252121" offset="100%"/></linearGradient></defs><g fill="none" fill-rule="evenodd"><rect width="43" height="2" y="70" fill="#F2F2F2" rx="1"/><rect width="4" height="10" x="20" y="42" fill="url(#a)" rx="1"/><path fill="#222A32" d="M12 33h9v39h-9V33zM9 69c.868-1.158 3-1 3-1v4H9s-.868-1.842 0-3z"/><path fill="url(#b)" d="M12 39l3.053 2.442c1.075.86 1.947 2.677 1.947 4.056V72h-5V39z"/><path fill="#222A32" d="M31.5 72H23V33h9v35.04c.675.088 1.526.328 2 .96.868 1.158 0 3 0 3h-2.5z"/><path fill="url(#b)" d="M27 39l3.053 2.442c1.075.86 1.947 2.677 1.947 4.056V72h-5V39z" transform="matrix(-1 0 0 1 59 0)"/><path fill="#343537" d="M22 44s9.726-5.083 9.726-8.673S26.97 31 22 31c-4.97 0-9.807.122-9.807 3.712C12.193 38.302 22 44 22 44z"/><path fill="url(#c)" stroke="#A5ACB8" d="M21.5 42.286C22.5 42.806 38 31.732 38 24c0-7.732-7.387-14-16.5-14S6 16.268 6 24s14.5 17.765 15.5 18.286z"/><ellipse cx="23" cy="15.5" fill="#ADCDDE" rx="9" ry="7.5"/><path fill="#070C11" d="M20 19h4v12h-4z"/><ellipse cx="22" cy="13.5" fill="url(#d)" rx="8" ry="6.5"/><path fill="#000" d="M21 31h2v2h-2z"/><path fill="url(#e)" d="M29.132 12.148c.65.894 1.476.773 1.84-.267 0 0 .676-1.815.826-2.666.232-1.326 0-1.533 0-3.95C31.798 2.847 27.083 0 22.736 0c-4.347 0-11.59 1.973-10.653 11.355.937 9.382 15.876-.825 15.876-.825l1.172 1.618z"/><path fill="#433317" d="M18 17h2v1h-2zM24 17h2v1h-2z"/><path fill="#ECC570" d="M21 20h2v1h-2z"/><path stroke="#979797" d="M14.463 24.624c4.403 7.783 1.03 2.72 12.628 13.175M16.38 37.37c6.162-4.2 9.225-4.194 13.964-12.653M27.176 30.18l.472.26-.472-.26zM16.807 30.014l-4.62 3.462M27.738 29.73l3.745 4.093"/><path fill="#FFDA91" d="M22.563 34l4.308 3.78-4.937 3.78-5.295-4.177L22.563 34z"/><path fill="#D8D8D8" d="M23.58 37.933c-.13.17-.26.343-.39.515l.39-.515z"/><path stroke="#979797" d="M21.946 37.096l-.52.13.52-.13z"/><path stroke="#C59A6D" d="M19 39.07L22.608 37M21 40.07L23.608 39"/><path stroke="#9E674A" d="M21.097 1.627s-6.24 1.53-6.24 9.355"/></g></svg>